<?xml version="1.0" standalone="no"?>
<!DOCTYPE svg PUBLIC "-//W3C//DTD SVG 20010904//EN"
 "http://www.w3.org/TR/2001/REC-SVG-20010904/DTD/svg10.dtd">
<svg version="1.0" xmlns="http://www.w3.org/2000/svg"
 width="500.000000pt" height="500.000000pt" viewBox="0 0 500.000000 500.000000"
 preserveAspectRatio="xMidYMid meet">
<metadata>
Created by potrace 1.14, written by Peter Selinger 2001-2017
</metadata>
<g transform="translate(0.000000,500.000000) scale(0.100000,-0.100000)"
fill="#000000" stroke="none">
<path d="M2530 3756 c0 -56 -8 -66 -51 -66 -36 0 -39 3 -58 45 l-20 45 -148
-6 c-200 -8 -197 -8 -205 -19 -4 -5 -19 -46 -34 -90 l-27 -80 -66 -29 c-36
-17 -83 -43 -104 -59 -21 -16 -40 -28 -42 -25 -2 2 -10 38 -16 79 -28 180 -28
181 -57 175 -15 -3 -52 -8 -82 -11 -30 -3 -62 -8 -70 -10 -8 -2 -37 -7 -65
-10 -111 -12 -113 -13 -105 -49 l7 -32 -51 13 c-28 7 -66 13 -86 13 -29 0
-399 -76 -407 -83 -2 -3 147 -680 151 -683 0 -1 75 15 166 36 91 20 166 34
168 30 1 -4 -9 -31 -23 -61 -13 -30 -25 -61 -25 -70 0 -9 -9 -46 -20 -82 -29
-92 -35 -159 -34 -352 0 -160 2 -177 33 -290 18 -66 42 -140 53 -165 94 -204
168 -316 287 -431 76 -74 246 -200 293 -218 13 -5 57 -25 99 -45 41 -20 129
-50 195 -67 113 -31 128 -32 309 -33 175 0 198 2 300 28 123 31 316 112 385
160 25 18 68 49 97 69 78 55 205 189 274 289 100 146 168 311 215 522 10 40
12 332 4 391 -13 94 -54 241 -89 319 -11 25 -16 46 -10 46 5 0 57 -12 116 -26
58 -14 109 -22 113 -17 4 4 22 71 40 148 44 197 37 185 104 170 50 -12 56 -11
60 3 5 14 40 172 51 223 2 9 8 34 14 55 6 21 7 42 3 45 -4 4 -68 22 -142 39
-74 17 -191 45 -259 61 -68 16 -176 36 -240 45 -64 8 -183 26 -266 39 -82 13
-215 26 -295 29 -136 6 -191 9 -367 21 l-73 5 0 -34z m-40 -91 c0 -8 -6 -15
-14 -15 -17 0 -28 14 -19 24 12 12 33 6 33 -9z m30 0 c0 -8 -4 -15 -10 -15 -5
0 -7 7 -4 15 4 8 8 15 10 15 2 0 4 -7 4 -15z m-30 -47 c0 -19 -2 -20 -10 -8
-13 19 -13 30 0 30 6 0 10 -10 10 -22z m27 -15 c-3 -10 -5 -4 -5 12 0 17 2 24
5 18 2 -7 2 -21 0 -30z m-568 -86 c-8 -7 -36 -29 -61 -50 -44 -36 -111 -65
-77 -33 36 35 125 96 139 96 13 -1 13 -2 -1 -13z m-5 -62 c-17 -48 -22 -51
-106 -60 -48 -6 -58 -4 -58 8 0 10 7 13 20 10 23 -6 101 7 83 14 -8 3 3 18 28
39 22 19 42 34 44 34 2 0 -3 -20 -11 -45z m546 -435 c0 -33 4 -60 10 -60 6 0
10 27 10 61 l0 62 153 -7 c83 -4 175 -9 202 -11 28 -2 92 -7 143 -10 51 -4
101 -8 111 -10 32 -6 84 -14 136 -20 63 -8 158 -24 159 -27 8 -19 36 -107 36
-111 0 -6 -15 -8 -74 -7 -22 1 -42 3 -46 5 -4 2 -15 31 -25 65 -10 33 -22 60
-26 60 -4 0 -1 -24 8 -52 21 -73 21 -70 -7 -78 -25 -6 -24 -6 6 -13 31 -6 32
-8 48 -95 21 -116 21 -122 -6 -122 -25 0 -19 -10 9 -14 14 -2 18 -12 18 -42 0
-39 -9 -49 -70 -70 l-20 -7 20 -4 c47 -10 76 -27 81 -49 11 -44 2 -49 -80 -48
-42 1 -79 3 -81 6 -3 2 -7 34 -10 71 -6 65 -5 66 23 81 64 33 106 112 95 178
-18 118 -144 188 -257 142 -13 -5 -17 -4 -12 4 9 15 -1 19 -64 25 -150 16
-230 19 -230 8 0 -6 -6 -8 -12 -6 -7 3 -13 22 -14 43 -2 75 -4 92 -12 92 -5 0
-7 -26 -5 -58 l4 -58 -154 1 c-116 0 -158 -3 -170 -14 -11 -9 -17 -10 -17 -2
0 7 -35 11 -111 11 -60 0 -108 -4 -105 -8 4 -7 -75 -5 -80 1 -5 5 21 123 28
127 4 3 46 7 94 9 l86 2 -7 -60 c-5 -42 -4 -61 4 -61 10 0 17 55 13 102 -2 20
13 23 121 26 l77 2 0 -60z m-1026 12 c5 -18 -2 -44 -19 -80 -14 -28 -25 -57
-25 -62 0 -10 -41 -30 -60 -30 -9 0 1 28 50 135 16 36 34 65 39 65 5 0 12 -12
15 -28z m602 -36 c-10 -72 -14 -75 -84 -78 -26 -1 -42 -6 -42 -14 0 -9 -8 -10
-32 -3 -50 14 -90 11 -129 -10 -33 -18 -89 -19 -89 -2 0 16 42 131 48 132 4 0
16 2 27 4 11 2 44 7 74 11 44 5 52 4 45 -7 -4 -8 -9 -20 -10 -29 -1 -8 -5 -27
-9 -42 -4 -16 -3 -28 2 -28 5 0 15 26 23 58 17 63 19 64 136 70 l50 3 -10 -65z
m-702 10 c-18 -38 -34 -33 -34 11 0 15 7 23 23 25 30 5 30 5 11 -36z m14 -43
c-39 -87 -58 -118 -58 -96 0 19 81 183 90 183 5 0 -9 -39 -32 -87z m312 -16
l-21 -65 -60 -4 c-34 -1 -62 -1 -64 0 -3 3 33 109 41 120 1 2 26 6 55 9 30 3
56 7 58 9 14 12 10 -13 -9 -69z m-146 -15 c-9 -26 -21 -50 -26 -53 -14 -9 -88
-10 -88 -1 0 5 9 27 20 50 11 22 20 45 20 51 0 12 84 19 89 8 2 -5 -5 -30 -15
-55z m2006 47 c50 -10 57 -14 66 -42 6 -18 15 -40 19 -50 7 -16 4 -18 -21 -15
-23 2 -31 10 -39 36 -5 17 -13 32 -17 32 -4 0 -8 7 -8 15 0 8 -5 15 -11 15 -6
0 -9 -6 -6 -12 3 -7 12 -30 21 -50 l16 -38 -25 0 c-18 0 -24 4 -19 13 6 9 4 9
-7 1 -27 -20 -41 -9 -65 50 -13 33 -24 61 -24 62 0 4 37 -2 120 -17z m110 -65
c29 -64 17 -68 -14 -5 -15 28 -22 51 -16 51 5 0 19 -21 30 -46z m-2000 -93
c-5 -14 -14 -59 -20 -98 l-12 -73 -70 0 c-68 0 -70 1 -65 23 3 12 13 59 23
104 l17 82 61 3 c68 3 78 -3 66 -41z m70 38 c0 -4 -5 -11 -11 -15 -6 -3 -19
-24 -29 -46 -20 -45 -18 -103 5 -147 16 -32 65 -77 94 -86 16 -5 19 -14 16
-48 -2 -23 -4 -56 -4 -73 l-1 -32 -86 0 -86 0 6 86 c3 48 5 97 6 110 0 14 9
26 23 32 21 8 21 9 1 9 l-20 1 18 102 c10 56 23 105 28 108 15 9 40 8 40 -1z
m1750 -79 c9 -41 20 -87 23 -102 7 -28 7 -28 -40 -28 -27 0 -55 4 -63 10 -9 5
-17 5 -20 -1 -4 -5 -12 21 -19 58 -7 38 -15 79 -18 93 -8 33 -10 44 -7 50 1 3
30 3 65 0 l63 -5 16 -75z m-1966 53 c-3 -15 -10 -44 -15 -63 -11 -48 -20 -93
-21 -107 -1 -7 -14 -13 -30 -14 -15 -1 -38 -2 -50 -2 -28 -1 -27 4 1 121 l22
87 50 3 50 3 -7 -28z m2062 15 c1 -2 13 -47 27 -101 l24 -97 -54 0 c-44 0 -53
3 -53 18 0 10 -6 42 -14 72 -7 30 -16 70 -19 88 l-7 32 47 -5 c25 -2 47 -6 49
-7z m-2249 -10 c-3 -7 -15 -55 -28 -105 -15 -63 -28 -93 -37 -93 -9 0 -12 6
-8 16 3 8 15 52 27 97 11 45 23 85 25 89 8 13 26 9 21 -4z m73 0 c0 -7 -11
-53 -23 -103 -23 -89 -23 -90 -56 -91 -29 -1 -32 1 -27 20 4 12 16 58 27 104
21 79 23 82 50 82 17 0 29 -5 29 -12z m2259 -10 c15 -39 45 -173 40 -177 -9
-10 -56 -7 -56 3 -1 6 -12 53 -25 104 l-24 92 28 0 c20 0 31 -6 37 -22z m41
-20 c6 -24 15 -53 20 -66 6 -13 10 -34 10 -47 0 -13 5 -27 11 -31 8 -4 8 -9 0
-17 -14 -14 -14 -14 -41 88 -12 50 -25 96 -28 103 -2 6 1 12 7 12 5 0 15 -19
21 -42z m-1410 -121 l-1 -32 -13 24 c-8 14 -12 31 -9 38 9 22 23 3 23 -30z
m493 -44 l-4 -48 38 -2 c21 -1 62 -4 91 -7 54 -6 56 -4 55 42 -1 18 6 15 43
-22 35 -35 109 -60 150 -52 20 4 21 0 23 -65 l2 -69 -28 -1 c-30 -1 -153 -1
-165 0 -5 1 -8 35 -8 77 0 43 -4 73 -9 69 -5 -3 -8 -35 -7 -71 2 -43 -1 -67
-8 -70 -7 -3 -56 -6 -109 -8 l-98 -3 2 121 c1 94 5 125 17 139 8 9 16 17 17
17 2 0 1 -21 -2 -47z m-295 -119 c-3 -53 -5 -57 -29 -60 -62 -6 -100 -15 -147
-33 l-49 -20 4 92 c3 51 6 93 7 94 1 1 46 3 101 5 99 3 100 3 102 28 3 52 7
53 10 3 2 -29 3 -78 1 -109z m243 29 c0 -54 2 -106 4 -115 4 -22 2 -22 -65 1
-30 10 -80 22 -112 25 -45 6 -55 10 -53 24 2 9 4 40 4 68 l1 50 80 -2 c72 -2
80 -1 80 16 0 17 7 20 53 29 4 0 7 -43 8 -96z m-1110 68 c1 -24 -3 -122 -6
-156 -2 -16 -3 -36 -4 -42 -1 -9 -22 -13 -71 -13 l-70 0 5 88 c9 144 5 137 80
139 54 1 65 -2 66 -16z m1889 -1 c1 -8 3 -32 6 -52 5 -31 3 -36 -13 -33 -10 2
-25 4 -34 4 -34 2 -80 65 -65 89 3 5 28 8 55 8 38 -1 51 -5 51 -16z m121 -14
c0 -11 2 -34 4 -51 11 -78 13 -135 4 -136 -5 0 -25 -1 -44 -1 -19 0 -39 1 -44
1 -5 1 -11 24 -13 51 -2 39 0 50 12 51 13 0 13 1 0 7 -15 7 -28 82 -17 99 3 5
26 7 51 5 39 -3 46 -7 47 -26z m-2366 -68 c-7 -106 -12 -128 -27 -128 -10 0
-6 104 7 165 2 11 4 28 4 38 1 9 6 17 12 17 8 0 9 -27 4 -92z m81 0 c-8 -121
-11 -128 -47 -128 l-29 0 6 83 c6 73 9 106 13 130 0 4 15 7 32 7 l31 0 -6 -92z
m119 0 c-4 -51 -8 -100 -10 -108 -1 -11 -17 -16 -54 -18 l-52 -3 7 83 c8 98
12 132 13 136 1 1 24 2 52 2 l51 0 -7 -92z m2246 70 c1 -13 3 -45 5 -73 2 -27
6 -64 9 -82 3 -17 1 -34 -5 -38 -5 -3 -10 -1 -10 6 0 8 -4 8 -13 1 -25 -21
-35 4 -42 106 l-7 102 31 0 c25 0 31 -4 32 -22z m46 -49 c9 -93 8 -134 -2
-134 -10 0 -10 -4 -20 120 -6 70 -5 87 5 79 6 -7 14 -36 17 -65z m-1505 -53
l-3 -94 -110 0 -109 0 4 69 c2 38 0 71 -5 74 -4 3 -9 -27 -11 -67 l-3 -73 -97
-3 -98 -2 0 69 0 69 48 7 c26 3 57 13 70 21 13 9 22 10 22 4 0 -6 3 -9 8 -7 4
3 52 8 107 12 55 4 101 8 102 8 1 1 19 3 40 4 l38 2 -3 -93z m1269 -13 c0 -16
2 -38 3 -50 2 -13 -2 -23 -8 -24 -71 -4 -98 -4 -107 2 -18 11 19 77 49 88 48
17 62 13 63 -16z m-2268 -100 c11 -19 18 -201 8 -208 -6 -3 -11 -3 -12 2 -16
133 -20 213 -11 213 6 0 13 -3 15 -7z m81 -1 c3 -4 8 -54 11 -111 l7 -102 -28
5 c-16 2 -32 5 -35 5 -3 1 -6 13 -6 29 0 15 -3 62 -7 105 l-7 77 30 0 c16 0
32 -4 35 -8z m119 1 c3 -5 8 -54 11 -110 l7 -103 -50 0 c-34 0 -51 4 -52 13 0
6 -2 19 -4 27 -1 8 -5 52 -8 98 l-6 82 49 0 c27 0 51 -3 53 -7z m158 0 c2 -16
7 -90 11 -153 l3 -64 -45 1 c-99 3 -96 2 -96 26 -1 12 -4 61 -8 110 l-6 87 70
0 c38 0 70 -3 71 -7z m196 -108 l5 -111 -86 1 c-79 0 -86 2 -87 20 0 11 -3 62
-6 113 l-5 93 87 -3 88 -3 4 -110z m212 28 c2 -49 3 -99 4 -113 2 -25 2 -25
-88 -25 -49 -1 -94 0 -100 2 -6 2 -11 51 -13 113 l-3 110 99 0 99 0 2 -87z
m192 69 c-50 -35 -111 -96 -141 -140 -16 -25 -30 -44 -31 -41 -1 2 -3 48 -5
102 l-3 97 102 -1 c98 0 101 -1 78 -17z m753 -79 c-2 -54 -3 -100 -3 -102 -1
-2 -20 23 -44 55 -39 53 -74 87 -132 129 -18 13 -10 14 80 15 l101 0 -2 -97z
m223 90 c-3 -5 -8 -53 -11 -108 -4 -54 -8 -101 -10 -103 -3 -2 -47 -5 -100 -7
l-96 -4 4 26 c3 14 6 65 7 114 l2 89 104 0 c57 0 102 -3 100 -7z m182 -53 c-1
-34 1 -64 5 -67 3 -3 6 12 6 34 0 22 3 43 7 47 4 4 8 15 8 24 0 14 12 18 66
20 l66 3 -3 -68 c-2 -37 -6 -87 -9 -110 l-6 -43 -69 0 c-68 0 -69 0 -64 25 2
14 0 25 -6 25 -5 0 -10 -11 -10 -25 0 -23 -4 -25 -47 -26 -27 0 -65 -2 -86 -3
l-39 -2 3 90 c5 146 -2 136 95 136 l84 0 -1 -60z m276 11 c-3 -25 -7 -70 -9
-99 -3 -29 -7 -56 -10 -61 -3 -4 -26 -9 -52 -9 l-46 -2 7 102 c3 56 9 106 12
111 2 4 27 7 53 6 l49 -3 -4 -45z m80 7 c-3 -24 -7 -70 -9 -102 -6 -67 -7 -68
-42 -72 l-26 -3 7 102 c4 56 9 105 12 110 2 4 17 7 33 7 28 0 29 -1 25 -42z
m43 25 c-2 -10 -7 -21 -13 -25 -6 -5 -6 -8 1 -8 11 0 11 -16 0 -95 -2 -16 -5
-38 -5 -47 -1 -10 -6 -18 -12 -18 -11 0 -5 163 7 195 8 21 26 19 22 -2z
m-2467 -313 c16 -62 21 -100 14 -100 -6 0 -21 39 -34 88 -13 48 -26 93 -29
100 -2 6 2 12 10 12 8 0 22 -35 39 -100z m76 10 c28 -114 28 -120 -2 -120 -29
0 -37 14 -60 110 -9 36 -18 73 -21 83 -5 16 -1 18 28 15 33 -3 33 -4 55 -88z
m103 50 c5 -19 14 -57 20 -85 5 -27 12 -59 15 -71 4 -18 0 -20 -39 -20 -45 1
-58 7 -62 29 -6 29 -14 61 -28 118 -9 33 -16 62 -16 64 0 1 23 2 50 2 49 -2
51 -3 60 -37z m126 31 c17 -1 23 -14 41 -103 11 -57 19 -105 18 -108 -2 -3
-31 -3 -66 0 l-63 5 -23 95 c-12 52 -22 100 -23 106 0 6 18 10 48 8 26 -1 56
-3 68 -3z m1900 -20 c-7 -20 -26 -108 -32 -141 -9 -48 -11 -50 -77 -50 l-64 0
12 68 c7 37 16 84 19 104 l7 37 57 3 c70 4 84 0 78 -21z m108 -35 c-21 -94
-32 -137 -36 -141 -2 -2 -25 -6 -51 -8 -40 -4 -47 -2 -43 12 2 9 12 52 21 96
10 44 21 85 25 90 5 6 28 10 53 11 l44 1 -13 -61z m68 -33 c-13 -54 -26 -99
-27 -101 -7 -8 -55 -11 -55 -3 0 14 37 162 45 184 4 10 18 17 35 17 l27 0 -25
-97z m58 72 c-5 -14 -12 -36 -14 -48 -2 -12 -10 -42 -17 -67 -7 -25 -12 -48
-11 -52 1 -5 -5 -8 -13 -8 -12 0 -12 6 -1 43 7 23 13 44 13 47 1 33 28 110 39
110 10 0 11 -6 4 -25z m-1925 3 c2 -7 6 -31 8 -53 3 -22 8 -65 12 -96 l7 -56
-73 2 c-41 2 -77 4 -80 4 -6 1 -25 82 -34 146 -3 22 -8 46 -10 53 -3 9 17 12
81 12 59 0 86 -4 89 -12z m199 -7 c-12 -29 -33 -135 -34 -168 l0 -32 -60 0
-59 1 -6 36 c-3 20 -8 51 -11 67 -3 17 -8 49 -11 73 l-5 43 97 -2 c85 -1 95
-3 89 -18z m1151 -19 c-3 -21 -7 -47 -9 -57 -2 -11 -7 -43 -10 -71 l-7 -50
-60 -2 -59 -2 0 38 c0 34 -19 121 -35 163 -5 14 7 16 90 17 l96 2 -6 -38z
m185 22 c0 -9 -7 -56 -16 -105 l-17 -89 -79 0 -80 0 6 53 c11 85 17 131 22
145 2 8 28 12 84 12 67 0 80 -3 80 -16z m-1973 -289 c23 -52 38 -95 33 -95 -4
0 -16 17 -25 38 -10 20 -30 63 -46 95 -16 34 -23 57 -16 57 7 0 31 -43 54 -95z
m32 79 c8 -8 81 -172 81 -181 0 -1 -12 -2 -26 -1 -20 2 -31 11 -41 36 -8 19
-27 61 -43 95 -17 33 -30 62 -30 63 0 7 52 -4 59 -12z m2198 -78 c-33 -73 -47
-96 -66 -101 -13 -3 -25 -4 -27 -2 -2 2 9 35 25 73 51 122 52 124 82 124 l27
0 -41 -94z m72 87 c-1 -16 -88 -188 -88 -176 -1 18 73 183 82 183 4 0 7 -3 6
-7z m-2149 -15 c0 -7 13 -47 30 -88 39 -98 38 -101 -7 -94 -21 3 -41 9 -45 12
-6 7 -78 169 -78 178 0 2 23 4 50 4 33 0 50 -4 50 -12z m140 -5 c8 -8 60 -166
60 -180 0 -4 -26 -7 -58 -5 l-57 4 -37 91 c-19 51 -34 95 -32 99 6 9 115 1
124 -9z m1759 -66 c-44 -120 -42 -117 -104 -117 -30 0 -55 4 -55 8 0 4 13 46
28 92 l29 85 49 6 c89 10 85 14 53 -74z m141 75 c0 -4 -4 -12 -8 -17 -5 -6
-21 -41 -37 -80 -15 -38 -31 -73 -34 -77 -3 -3 -25 -8 -48 -11 l-41 -4 25 66
c14 36 30 81 36 99 10 30 13 32 59 32 26 0 48 -4 48 -8z m-1697 -103 l25 -100
-69 3 c-38 3 -73 9 -78 14 -7 8 -25 59 -56 162 -6 22 -5 22 73 22 l80 0 25
-101z m115 29 c14 -82 56 -174 106 -239 20 -24 36 -52 36 -62 0 -16 -8 -18
-72 -15 l-73 3 -32 80 c-17 44 -29 83 -27 86 2 3 21 5 43 3 23 -2 43 1 46 7 4
5 -16 9 -47 9 l-54 0 -22 88 c-12 48 -22 93 -22 100 0 8 17 12 53 12 l53 0 12
-72z m1142 65 c0 -5 -9 -49 -21 -99 l-22 -90 -45 -3 c-25 -1 -49 -4 -54 -7
-11 -7 -11 -3 12 78 11 40 20 85 20 100 0 27 2 28 55 28 30 0 55 -3 55 -7z
m178 -5 c-3 -7 -17 -51 -32 -98 l-28 -85 -73 -3 -73 -2 25 100 25 100 80 0
c60 0 79 -3 76 -12z m-1823 -260 c31 -45 49 -76 41 -69 -8 7 -32 38 -53 69
-50 73 -55 82 -49 82 3 0 30 -37 61 -82z m10 74 c11 -7 73 -101 94 -139 10
-20 9 -23 -7 -23 -13 0 -38 28 -76 85 -44 66 -52 85 -39 85 10 0 23 -4 28 -8z
m2001 -69 c-53 -76 -79 -103 -91 -91 -7 6 81 148 99 160 6 4 19 8 28 8 14 0 6
-18 -36 -77z m48 25 c-44 -62 -78 -99 -44 -48 37 54 72 100 77 100 3 0 -12
-24 -33 -52z m-1893 -43 l48 -80 -32 -3 c-36 -4 -47 7 -110 108 l-38 61 43 -3
c41 -3 43 -5 89 -83z m76 76 c11 -1 93 -149 93 -167 0 -3 -21 -4 -47 -3 -52 3
-53 4 -126 130 l-27 47 48 -3 c26 -2 53 -3 59 -4z m1643 -6 c0 -8 -4 -16 -9
-19 -5 -3 -21 -29 -36 -58 -43 -84 -70 -105 -87 -68 -5 12 -7 12 -7 -2 -1 -13
-9 -18 -28 -17 -16 0 -22 3 -15 6 6 2 10 9 7 13 -3 5 10 41 29 79 32 63 39 70
68 73 69 6 78 6 78 -7z m98 -2 c-8 -10 -31 -46 -52 -79 -37 -64 -50 -74 -93
-74 l-25 0 28 48 c71 122 71 122 116 122 38 0 40 -1 26 -17z m-1570 -2 c4 -3
18 -33 31 -66 12 -33 27 -68 32 -77 13 -25 8 -26 -103 -19 -11 1 -32 30 -58
82 -22 44 -40 82 -40 84 0 6 128 2 138 -4z m1170 -6 c1 -1 -5 -27 -15 -56 -19
-56 -43 -77 -97 -81 -36 -3 -32 -16 7 -21 17 -2 4 -5 -30 -5 -77 -2 -79 7 -24
81 21 29 43 61 49 73 9 18 18 20 59 17 26 -3 49 -6 51 -8z m138 -56 c-24 -53
-36 -69 -52 -69 -46 0 -88 76 -64 119 9 18 20 21 79 20 l68 -1 -31 -69z
m-1519 -173 c34 -36 56 -66 48 -66 -13 0 -136 122 -144 142 -8 22 37 -13 96
-76z m493 60 c0 -2 -9 -2 -20 1 -11 3 -20 9 -20 15 0 5 9 4 20 -2 11 -6 20
-12 20 -14z m667 10 c-11 -9 -14 -17 -8 -21 7 -4 7 -12 1 -23 -5 -9 -18 -39
-29 -67 l-19 -50 -67 -3 c-66 -3 -67 -3 -61 20 3 13 6 28 6 35 0 13 125 83
148 83 7 0 11 4 7 9 -3 6 3 14 12 20 26 15 31 13 10 -3z m-1127 -13 c3 -4 30
-36 59 -71 l53 -63 -31 3 c-24 2 -44 17 -91 69 -33 37 -60 70 -60 73 0 8 62
-2 70 -11z m1630 7 c0 -3 -29 -35 -65 -70 -42 -41 -74 -65 -90 -66 -24 -1 -23
0 14 45 71 84 85 96 114 96 15 0 27 -2 27 -5z m-7 -62 c-40 -40 -75 -69 -79
-65 -10 9 116 137 135 137 9 0 -16 -31 -56 -72z m-1469 -3 c61 -86 60 -82 15
-80 -21 1 -41 4 -42 6 -2 2 -27 32 -55 67 -29 35 -52 65 -52 67 0 3 21 4 46 3
43 -2 47 -5 88 -63z m1368 37 c-48 -67 -98 -114 -125 -116 -15 -2 -30 1 -33 5
-3 5 15 37 40 72 43 60 46 62 91 64 l46 2 -19 -27z m-1232 -45 c19 -34 37 -65
38 -69 2 -5 -19 -8 -46 -8 l-50 0 -46 65 c-25 36 -46 68 -46 70 0 3 26 5 58 5
l57 0 35 -63z m108 54 c12 -1 25 -9 28 -18 6 -18 12 -35 33 -86 6 -15 11 -30
11 -33 0 -3 -26 -3 -57 -2 l-58 3 -37 65 c-21 36 -38 67 -38 70 0 5 27 5 118
1z m147 -39 c78 -38 119 -51 177 -54 42 -3 48 -6 48 -25 0 -22 -4 -23 -69 -23
-68 0 -68 0 -79 33 l-11 32 3 -32 3 -33 -63 0 c-35 0 -65 4 -68 8 -2 4 -16 38
-30 74 l-24 66 26 -8 c15 -4 54 -21 87 -38z m735 40 c0 -4 -17 -36 -37 -71
l-38 -65 -59 -3 c-52 -3 -57 -1 -51 15 4 9 16 40 26 69 19 50 21 52 62 55 23
2 54 4 70 5 15 1 27 -1 27 -5z m59 -47 c17 -67 4 -85 -59 -85 -28 0 -50 2 -50
5 0 5 21 40 67 113 18 30 28 22 42 -33z m81 50 c0 -3 -13 -24 -30 -47 -31 -42
-38 -35 -19 21 7 20 18 31 30 31 10 0 19 -2 19 -5z m-489 -118 c-10 -25 -14
-27 -76 -27 -61 0 -65 1 -65 23 0 21 5 24 43 25 23 1 56 6 72 10 35 10 39 5
26 -31z m-818 -65 c26 -19 47 -36 47 -39 0 -2 -27 15 -60 38 -33 23 -60 44
-60 46 0 5 15 -4 73 -45z m65 -3 c34 -29 60 -54 57 -57 -5 -5 -78 42 -135 88
-23 18 -23 20 -5 20 11 0 48 -23 83 -51z m1301 47 c-20 -20 -144 -106 -153
-106 -14 1 81 88 109 100 21 9 52 13 44 6z m-1200 -61 c45 -45 51 -55 34 -55
-19 0 -135 79 -148 101 -4 5 9 9 27 9 27 0 43 -11 87 -55z m106 -4 c38 -48 37
-64 -3 -55 -24 6 -122 89 -122 104 0 3 20 3 45 0 39 -4 51 -11 80 -49z m995
38 c-14 -12 -36 -31 -50 -43 -35 -30 -46 -37 -78 -42 -25 -5 -23 -1 26 49 44
45 59 54 90 55 l37 1 -25 -20z m120 17 c0 -2 -17 -16 -37 -31 l-38 -26 35 30
c34 31 40 35 40 27z m-992 -61 l30 -55 -43 0 c-38 0 -46 4 -77 43 -55 68 -56
67 6 67 l54 0 30 -55z m127 8 c3 -19 9 -41 12 -49 4 -11 -5 -14 -43 -14 -48 0
-49 1 -77 49 l-28 50 48 3 c71 4 80 0 88 -39z m425 40 c0 -1 -12 -25 -27 -52
-27 -47 -30 -50 -75 -53 -52 -3 -54 -1 -37 53 6 19 12 39 14 44 2 9 125 17
125 8z m104 -30 c-54 -71 -56 -73 -102 -73 l-44 0 18 28 c10 15 24 39 32 55
12 25 18 27 69 27 l55 0 -28 -37z m91 -13 c-42 -41 -56 -49 -88 -50 -35 0 -37
1 -23 16 9 9 28 31 42 50 23 30 32 34 73 34 l46 0 -50 -50z m-485 -8 c0 -27
-2 -51 -4 -53 -3 -2 -25 -3 -51 -1 -49 4 -53 9 -69 75 l-6 27 65 0 65 0 0 -48z
m150 46 c0 -2 -6 -23 -14 -48 l-13 -45 -52 -3 -51 -3 0 50 0 51 65 0 c36 0 65
-1 65 -2z m-524 -129 c67 -38 65 -50 -3 -15 -64 34 -81 46 -65 46 7 0 37 -14
68 -31z m833 18 c-2 -1 -27 -15 -55 -30 -55 -29 -81 -36 -49 -13 36 25 99 56
104 51 2 -3 2 -6 0 -8z m-747 -26 c50 -38 36 -48 -21 -15 -62 36 -70 44 -40
44 13 0 41 -13 61 -29z m93 -5 c30 -35 30 -36 3 -36 -13 0 -41 16 -63 34 l-40
34 38 -2 c28 -1 44 -9 62 -30z m101 -7 c13 -27 13 -29 -3 -30 -35 -3 -48 3
-70 29 -12 15 -22 29 -23 32 0 3 18 4 40 2 33 -3 44 -10 56 -33z m283 2 c-18
-22 -33 -30 -57 -30 l-33 -1 16 29 c12 24 23 30 52 33 21 2 40 2 42 1 2 -1 -7
-15 -20 -32z m85 3 c-24 -21 -50 -33 -68 -34 l-29 0 35 33 c23 22 45 32 68 33
l33 2 -39 -34z m116 32 c0 -8 -111 -68 -116 -63 -10 9 71 67 93 67 13 0 23 -2
23 -4z m-390 -39 c0 -33 -5 -35 -61 -28 -5 1 -29 47 -29 56 0 3 20 5 45 5 44
0 45 -1 45 -33z m99 3 c-9 -25 -16 -30 -45 -30 -31 0 -34 3 -34 30 0 29 2 30
44 30 l45 0 -10 -30z m-39 -50 c0 -9 -23 -30 -32 -30 -4 0 -8 8 -8 18 0 11 7
18 20 18 11 0 20 -3 20 -6z m60 2 c0 -5 -11 -14 -25 -20 -16 -7 -25 -8 -25 -1
0 5 10 14 23 19 29 11 27 11 27 2z m-180 -12 c0 -13 -11 -13 -30 0 -12 8 -11
10 8 10 12 0 22 -4 22 -10z m60 2 c0 -14 -11 -21 -26 -15 -21 8 -17 23 6 23
11 0 20 -4 20 -8z"/>
<path d="M2914 3005 c4 -27 11 -54 17 -60 9 -7 10 2 5 34 -10 66 -29 89 -22
26z"/>
<path d="M3100 3024 c0 -21 24 -94 31 -94 9 0 4 34 -12 78 -8 20 -19 30 -19
16z"/>
</g>
</svg>
