<?xml version="1.0" standalone="no"?>
<!DOCTYPE svg PUBLIC "-//W3C//DTD SVG 20010904//EN"
 "http://www.w3.org/TR/2001/REC-SVG-20010904/DTD/svg10.dtd">
<svg version="1.0" xmlns="http://www.w3.org/2000/svg"
 width="500.000000pt" height="500.000000pt" viewBox="0 0 500.000000 500.000000"
 preserveAspectRatio="xMidYMid meet">
<metadata>
Created by potrace 1.14, written by Peter Selinger 2001-2017
</metadata>
<g transform="translate(0.000000,500.000000) scale(0.100000,-0.100000)"
fill="#000000" stroke="none">
<path d="M2420 4294 c-149 -64 -177 -271 -49 -363 23 -17 48 -31 56 -31 11 0
13 -100 13 -582 l1 -583 26 -19 c25 -18 27 -18 59 -1 l34 18 0 582 0 582 41
18 c115 52 144 214 58 319 -57 68 -160 94 -239 60z m130 -99 c33 -17 60 -61
60 -97 0 -62 -69 -116 -133 -104 -52 10 -82 48 -82 106 0 88 77 135 155 95z"/>
<path d="M1845 4207 c-27 -12 -90 -41 -138 -65 -240 -118 -604 -203 -1081
-252 -110 -11 -202 -23 -205 -25 -10 -11 138 -215 214 -293 133 -139 261 -223
415 -272 69 -21 230 -43 282 -38 32 3 32 3 45 -62 30 -149 117 -268 227 -308
50 -19 136 -38 136 -30 0 3 -6 24 -14 49 -8 24 -17 56 -20 72 -4 15 -12 27
-19 27 -7 0 -34 13 -60 29 -52 34 -99 107 -118 184 -13 57 -10 62 58 72 24 3
76 17 115 31 111 37 147 84 93 120 -29 19 -45 17 -200 -17 -130 -29 -337 -32
-435 -5 -79 21 -152 47 -146 53 2 2 55 11 117 19 277 36 617 142 722 224 31
25 36 69 11 94 -24 25 -68 19 -142 -18 -185 -92 -524 -164 -799 -169 l-127 -2
-58 69 c-32 38 -58 73 -58 78 0 4 26 8 58 8 79 0 297 27 417 51 247 49 427
108 647 210 69 32 131 59 137 59 14 0 18 -9 47 -106 14 -49 40 -116 57 -149
54 -102 179 -211 275 -240 21 -6 22 -4 22 67 0 71 -1 74 -30 91 -94 56 -146
132 -196 287 -46 142 -78 180 -150 180 -28 0 -70 -10 -99 -23z"/>
<path d="M2986 4209 c-34 -26 -58 -74 -86 -169 -13 -41 -33 -96 -46 -121 -26
-52 -101 -132 -145 -155 -28 -14 -29 -17 -29 -89 0 -41 2 -75 5 -75 15 0 135
66 168 92 71 56 158 202 181 303 19 82 28 105 41 105 7 0 58 -21 112 -46 232
-108 422 -171 658 -219 146 -29 347 -55 433 -55 74 0 74 -1 -10 -101 l-51 -62
-128 7 c-274 13 -582 77 -759 156 -56 26 -111 44 -135 44 -34 1 -41 -3 -53
-28 -23 -47 -5 -70 100 -120 173 -83 396 -146 618 -176 47 -6 100 -13 119 -16
l35 -6 -41 -18 c-131 -58 -364 -72 -548 -31 -155 34 -171 36 -200 17 -32 -21
-33 -60 -2 -81 32 -20 156 -62 210 -70 70 -11 72 -14 52 -81 -28 -98 -73 -156
-147 -193 -38 -18 -43 -26 -64 -91 -25 -81 -27 -80 71 -55 144 38 234 140 273
311 l17 75 95 4 c306 13 575 183 784 494 38 56 67 104 64 106 -3 3 -75 12
-162 20 -521 50 -857 130 -1166 276 -164 77 -215 87 -264 48z"/>
</g>
</svg>
